<?xml version="1.0" encoding="utf-8"?>
<!-- Generator: Adobe Illustrator 18.1.1, SVG Export Plug-In . SVG Version: 6.00 Build 0)  -->
<!DOCTYPE svg PUBLIC "-//W3C//DTD SVG 1.1//EN" "http://www.w3.org/Graphics/SVG/1.1/DTD/svg11.dtd">
<svg version="1.1" xmlns="http://www.w3.org/2000/svg" xmlns:xlink="http://www.w3.org/1999/xlink" x="0px" y="0px"
	 viewBox="0 0 64 64" enable-background="new 0 0 64 64" xml:space="preserve">
<g id="Ebene_1" display="none">
	<path display="inline" fill="#58595B" d="M32,1C19.5,1,9,11.5,9,24c0,8.4,3.9,17.5,11.2,26.1c5.5,6.5,10.9,12.5,11.2,12.7
		c0.2,0.1,0.4,0.2,0.6,0.2s0.4-0.1,0.6-0.2c0.2-0.2,5.7-6.1,11.2-12.7C51.1,41.5,55,32.4,55,24C55,11.5,44.5,1,32,1z M32,37
		c-7.7,0-14-6.3-14-14S24.3,9,32,9s14,6.3,14,14S39.7,37,32,37z"/>
	
		<image display="inline" overflow="visible" width="63" height="83" xlink:href="../../../Desktop/pointer.png"  transform="matrix(0.7455 0 0 0.7455 9.0173 1.125)">
	</image>
</g>
<g id="Ebene_2">
</g>
<g id="Ebene_3">
	<path fill="#FFFFFF" d="M32,2C8.5,2,4.4,27.6,15,42c6.6,8.9,17,20,17,20s10.4-11.1,17-20C59.6,27.6,55.5,2,32,2z M32,43
		c-9.9,0-18-8.1-18-18c0-9.9,8.1-18,18-18s18,8.1,18,18C50,34.9,41.9,43,32,43z"/>
	<g>
	</g>
	<g>
	</g>
	<g>
	</g>
	<g>
	</g>
	<g>
	</g>
	<g>
	</g>
</g>
</svg>
